<svg xmlns="http://www.w3.org/2000/svg" width="84" height="71" viewBox="0 0 84 71">
  <g id="blending-architecture-with-design" transform="translate(-148 -1076)">
    <g id="Group_5269" data-name="Group 5269" transform="translate(148 1088.328)">
      <g id="Group_1234" data-name="Group 1234">
        <g id="Group_1233" data-name="Group 1233">
          <path id="Path_103824" data-name="Path 103824" d="M213.448,1207.279h-3.711a1.889,1.889,0,0,1,.981-.936c1.586-.73,2.461-2.568,2.461-5.173v-.695H158.487v.695c0,2.608.873,4.443,2.459,5.173a1.879,1.879,0,0,1,.973.936h-3.7a13.093,13.093,0,0,0,0,26.186,11.219,11.219,0,0,0,3.85-.684v26.366h1.391v-26.975c.305-.161.6-.34.889-.53v27.408h1.39v-28.511a10.825,10.825,0,0,0,1.712-2.026,1.389,1.389,0,0,1,1.067,1.347v29.19H169.9v-29.188a2.751,2.751,0,0,0-.558-1.653h1.85a2.757,2.757,0,0,0-.558,1.653v29.188h1.39v-29.188a1.39,1.39,0,1,1,2.779,0v29.188H176.2v-29.188a2.757,2.757,0,0,0-.557-1.653h1.789a2.752,2.752,0,0,0-.558,1.653v29.188h1.39v-29.188a1.389,1.389,0,1,1,2.779,0v29.188h1.388v-29.188a2.757,2.757,0,0,0-.557-1.653h1.741a2.746,2.746,0,0,0-.559,1.653v29.188h1.39v-29.188a1.37,1.37,0,0,1,.322-.88,1.385,1.385,0,0,1,2.457.88v29.188h1.39v-29.188a2.746,2.746,0,0,0-.559-1.653h1.741a2.758,2.758,0,0,0-.559,1.653v29.188h1.39v-29.188a1.39,1.39,0,1,1,2.779,0v29.188h1.39v-29.188a2.758,2.758,0,0,0-.559-1.653h1.789a2.757,2.757,0,0,0-.558,1.653v29.188h1.389v-29.188a1.389,1.389,0,1,1,2.779,0v29.188h1.391v-29.188a2.753,2.753,0,0,0-.56-1.653h1.852a2.747,2.747,0,0,0-.56,1.653v29.188h1.389v-29.188a1.391,1.391,0,0,1,1.068-1.349,10.854,10.854,0,0,0,1.711,2.026v28.511h1.39v-27.408a10.249,10.249,0,0,0,.89.53v26.975h1.388v-26.368a11.185,11.185,0,0,0,3.851.684,13.092,13.092,0,0,0,0-26.184Zm-51.921-2.2c-1.182-.545-1.537-2.045-1.624-3.215h51.86c-.088,1.169-.443,2.67-1.624,3.215a3.164,3.164,0,0,0-1.856,2.2H163.374A3.16,3.16,0,0,0,161.527,1205.08Zm-3.311,8.814a7.877,7.877,0,0,0-7.784,6.746c0-.082-.012-.16-.012-.241a7.8,7.8,0,0,1,7.663-7.79,9.785,9.785,0,0,1,9.738,9.225A9.8,9.8,0,0,0,158.216,1213.894Zm5.221-1.3,2.9,0c7.462-.006,17.62-.015,19.5-.015s12.037.009,19.5.015l2.9,0a11.164,11.164,0,0,0-1.294.846H164.73A10.994,10.994,0,0,0,163.436,1212.6Zm22.417,14.221H168.348a11.162,11.162,0,0,0,.775-2.878H202.54a11.31,11.31,0,0,0,.774,2.878Zm16.579-4.268h-33.2c0-.056.007-.107.007-.162,0-.28-.022-.555-.042-.829h33.272c-.02.274-.043.55-.043.829C202.426,1222.444,202.433,1222.5,202.433,1222.551Zm.218-2.382H169.015a11.139,11.139,0,0,0-2.743-5.336h39.122A11.1,11.1,0,0,0,202.65,1220.169Zm1.193,1.664a9.786,9.786,0,0,1,9.737-9.225,7.8,7.8,0,0,1,7.663,7.79c0,.081-.009.163-.013.243a7.879,7.879,0,0,0-7.783-6.748A9.8,9.8,0,0,0,203.844,1221.834Zm9.6,10.241a8.4,8.4,0,0,1,0-16.793,6.482,6.482,0,0,1,2.069,12.625,7.8,7.8,0,0,1-2.069.288v.059a5.009,5.009,0,1,1,0-10.018,2.376,2.376,0,0,1,2.155,1.54,3.008,3.008,0,1,0-2.155,5.105,2.889,2.889,0,0,0,.625-.067,3.946,3.946,0,0,0,3.138-3.95,3.9,3.9,0,0,0-3.644-4v-.013h-.119a6.4,6.4,0,0,0,0,12.8,7.848,7.848,0,0,0,2.482-.406,9.178,9.178,0,0,0-2.333-18.016v0h-.017c-.044,0-.088-.005-.132-.005l-8.118-.006c-7.438-.005-17.553-.015-19.477-.015h-.043c-1.923,0-12.039.009-19.477.015l-8.117.006c-.044,0-.087.005-.132.005h-.016v0a9.178,9.178,0,0,0-2.334,18.016,7.853,7.853,0,0,0,2.483.406,6.4,6.4,0,0,0,0-12.8H158.1v.013a3.9,3.9,0,0,0-3.645,4.007,3.944,3.944,0,0,0,3.136,3.948,2.912,2.912,0,0,0,.627.069,3.011,3.011,0,1,0-2.155-5.107,2.374,2.374,0,0,1,2.155-1.54,5.009,5.009,0,0,1,0,10.018v-.059a7.733,7.733,0,0,1-2.071-.288,6.481,6.481,0,0,1,2.071-12.623,8.4,8.4,0,1,1,0,16.791,11.7,11.7,0,0,1,0-23.406h55.233a11.7,11.7,0,0,1,0,23.406Zm1.621-10.2a1.622,1.622,0,0,1-1.278,1.582,1.969,1.969,0,0,1-.344.041,1.622,1.622,0,1,1,1.621-1.623Zm-58.474,0a1.621,1.621,0,1,1,1.62,1.623,1.969,1.969,0,0,1-.344-.041A1.621,1.621,0,0,1,156.6,1221.871Z" transform="translate(-145.151 -1200.475)" fill="#58595b"/>
          <rect id="Rectangle_501" data-name="Rectangle 501" width="6.523" height="1.39" transform="translate(52.168 2.316)" fill="#58595b"/>
          <rect id="Rectangle_502" data-name="Rectangle 502" width="3.009" height="1.39" transform="translate(60.081 2.316)" fill="#58595b"/>
        </g>
      </g>
    </g>
    <rect id="Rectangle_2292" data-name="Rectangle 2292" width="84" height="71" transform="translate(148 1076)" fill="none"/>
  </g>
</svg>
