<svg xmlns="http://www.w3.org/2000/svg" width="106.179" height="71" viewBox="0 0 106.179 71">
  <g id="enjoy-shared-spaces" transform="translate(-545 -1076)">
    <g id="Group_5271" data-name="Group 5271" transform="translate(546.214 1095.154)">
      <path id="Path_103825" data-name="Path 103825" d="M581.247,1259.288l-4.141-11.362-4.223,11.229h-8.153l6.232-21.464V1231.5l-10.013,9.607-5.07-4.781,14.022-16.009h1.536a7.922,7.922,0,1,1,11.828-1.285,7.994,7.994,0,0,1-.921,1.085l1.212-.029,9.437,10.617,9.1-10.388h1.541a8.011,8.011,0,0,1-1.023-1.139,7.845,7.845,0,0,1-1.547-4.7,7.919,7.919,0,1,1,13.472,5.637l1.215-.029,9.478,10.665,9.141-10.436h1.542a8.008,8.008,0,0,1-1.023-1.139,7.846,7.846,0,0,1-1.546-4.7,7.919,7.919,0,1,1,13.471,5.637l1.212-.029,14.037,15.794-4.951,4.662-9.807-8.994v6.031l6.1,21.422-7.691.281-4.141-11.359-4.223,11.228H629.2l6.232-21.464v-6.187l-9.73,9.336v.5l-.268-.245-.017.016-1.064-1.006-.117-.107-9.207-8.449v6.03l6.1,21.422-7.693.283-4.139-11.362-4.223,11.229h-8.155l6.232-21.464v-6.185l-10.012,9.607-4.263-4.019-6.038-5.542v6.029l6.1,21.422Zm60.35-16.4,5.324,14.6,4.188-.153-5.559-19.511v-10.255l11.541,10.585,2.529-2.381-12.369-13.917-8.858.21h-3.234l-9.925,11.331-10.257-11.541-8.86.21h-3.234L593,1233.354l-10.216-11.493-3.017.072h0l-5.842.139h-3.233l-12.388,14.143,2.632,2.482,11.774-11.3v10.54l-.035.12-5.617,19.346h4.611l5.46-14.519,5.323,14.606,4.189-.155-5.557-19.511V1227.57l8.985,8.246,3.056,2.881,11.773-11.3v10.538l-5.652,19.465h4.613l5.46-14.52,5.322,14.607,4.19-.154-5.559-19.511v-10.256l10.674,9.8v-.041l1.456,1.373,11.774-11.3v10.54l-.035.12-5.617,19.346h4.611Zm-.344-34.573a6.166,6.166,0,0,0-1.905,12.03l2.049.666,2.026-.763a6.17,6.17,0,0,0,2.876-2.224,6.107,6.107,0,0,0,1.122-3.542A6.174,6.174,0,0,0,641.254,1208.317Zm-32.276,0a6.166,6.166,0,0,0-1.905,12.03l2.049.666,2.026-.763a6.163,6.163,0,0,0-2.17-11.933Zm-32.189,0a6.166,6.166,0,0,0-1.9,12.03l2.05.665,2.024-.763a6.173,6.173,0,0,0,2.876-2.224,6.105,6.105,0,0,0,1.123-3.542A6.175,6.175,0,0,0,576.789,1208.317Z" transform="translate(-557.093 -1207.442)" fill="#58595b"/>
    </g>
    <rect id="Rectangle_2293" data-name="Rectangle 2293" width="106" height="71" transform="translate(545 1076)" fill="none"/>
  </g>
</svg>
