<svg id="this-is-your-q" xmlns="http://www.w3.org/2000/svg" width="68.483" height="71" viewBox="0 0 68.483 71">
  <g id="Group_1231" data-name="Group 1231">
    <path id="Path_103816" data-name="Path 103816" d="M1032.446,1216.2H1028.8l-17.895-19.856,10.468-5.938a.74.74,0,1,0-.73-1.287L972.912,1216.2H970.1a3.07,3.07,0,0,0-3.066,3.067v13.518a3.07,3.07,0,0,0,3.066,3.068h1.681v22.268a1.9,1.9,0,0,0,1.9,1.9h2.953a1.9,1.9,0,0,0,1.9-1.9v-14.451a11.355,11.355,0,0,1,.848-4.313l1.432-3.5h40.918l1.432,3.5a11.374,11.374,0,0,1,.848,4.313v14.451a1.9,1.9,0,0,0,1.9,1.9h2.954a1.907,1.907,0,0,0,1.9-1.9v-22.268h1.676a3.071,3.071,0,0,0,3.066-3.068v-13.518A3.071,3.071,0,0,0,1032.446,1216.2Zm-22.855-19.108,17.221,19.108h-15.376v-5.168a1.482,1.482,0,0,0-1.48-1.479H992.584a1.482,1.482,0,0,0-1.48,1.479v5.168H975.911Zm15.709,30.511a.553.553,0,0,0-.554.556v2.286h-4.9v-2.286a.554.554,0,1,0-1.107,0v2.286h-4.9v-2.286a.555.555,0,1,0-1.109,0v2.286h-4.9v-2.286a.555.555,0,1,0-1.111,0v2.286h-4.9v-2.286a.555.555,0,1,0-1.109,0v2.286h-4.9v-2.286a.555.555,0,1,0-1.109,0v2.286h-4.9v-2.286a.555.555,0,1,0-1.111,0v2.286h-4.9v-2.286a.555.555,0,1,0-1.111,0v2.286h-4.9v-2.286a.555.555,0,1,0-1.109,0v2.286H974.32v-5.06h17.508c.006,0,.009,0,.015,0h18.852c.005,0,.009,0,.017,0h17.506v5.06h-2.363v-2.286A.555.555,0,0,0,1025.3,1227.608Zm-32.716-10.647c0-.007,0-.013,0-.018s0-.012,0-.017v-5.889l7.945,0v12.872h-7.945Zm9.425,6.949v-12.872h7.947v12.872Zm7.947-12.874ZM978.012,1238.8a12.828,12.828,0,0,0-.956,4.871v14.451a.426.426,0,0,1-.424.424h-2.953a.423.423,0,0,1-.422-.424v-22.268h5.96Zm51.279,19.323a.426.426,0,0,1-.424.424h-2.954a.426.426,0,0,1-.424-.424v-14.451a12.845,12.845,0,0,0-.955-4.871l-1.205-2.945h5.962v22.268Zm4.743-25.336a1.591,1.591,0,0,1-1.588,1.588c-6.762,0-51.55,0-62.351,0a1.59,1.59,0,0,1-1.587-1.588v-13.518a1.591,1.591,0,0,1,1.587-1.59H991.1v6.229H973.582a.739.739,0,0,0-.741.74v6.54a.739.739,0,0,0,.741.74h55.375a.738.738,0,0,0,.739-.74v-6.54a.738.738,0,0,0-.739-.74h-17.522v-6.229h21.01a1.592,1.592,0,0,1,1.588,1.59Z" transform="translate(-967.029 -1189.029)" fill="#58595b"/>
    <path id="Path_103817" data-name="Path 103817" d="M1012.222,1243.711H994.191a4.162,4.162,0,1,0,0,8.323h8.277v3.276l-9.149,2.6a1.847,1.847,0,0,0-1.34,1.771v4.205a.74.74,0,1,0,1.479,0v-4.205a.367.367,0,0,1,.263-.349l8.747-2.488v7.043a.74.74,0,0,0,1.481,0v-7.043l8.747,2.488a.364.364,0,0,1,.263.349v4.205a.741.741,0,0,0,1.482,0v-4.205a1.849,1.849,0,0,0-1.34-1.771l-9.152-2.6v-3.276h8.274a4.165,4.165,0,0,0,4.167-4.153v-.016A4.166,4.166,0,0,0,1012.222,1243.711Zm2.69,4.168a2.686,2.686,0,0,1-2.69,2.676H994.191a2.682,2.682,0,1,1,0-5.364h18.031a2.685,2.685,0,0,1,2.69,2.674Z" transform="translate(-968.964 -1193.631)" fill="#58595b"/>
    <path id="Path_103818" data-name="Path 103818" d="M996.871,1216.555h4.3a.555.555,0,1,0,0-1.109h-4.3a.555.555,0,1,0,0,1.109Z" transform="translate(-969.494 -1191.252)" fill="#58595b"/>
    <path id="Path_103819" data-name="Path 103819" d="M1001.169,1219.483h-4.3a.555.555,0,1,0,0,1.109h4.3a.555.555,0,1,0,0-1.109Z" transform="translate(-969.494 -1191.592)" fill="#58595b"/>
    <path id="Path_103820" data-name="Path 103820" d="M1001.169,1223.522h-4.3a.555.555,0,1,0,0,1.109h4.3a.555.555,0,1,0,0-1.109Z" transform="translate(-969.494 -1191.932)" fill="#58595b"/>
    <path id="Path_103821" data-name="Path 103821" d="M1011.361,1215.446h-4.3a.555.555,0,0,0,0,1.109h4.3a.555.555,0,0,0,0-1.109Z" transform="translate(-970.351 -1191.252)" fill="#58595b"/>
    <path id="Path_103822" data-name="Path 103822" d="M1011.361,1219.483h-4.3a.555.555,0,0,0,0,1.109h4.3a.555.555,0,0,0,0-1.109Z" transform="translate(-970.351 -1191.592)" fill="#58595b"/>
    <path id="Path_103823" data-name="Path 103823" d="M1011.361,1223.522h-4.3a.555.555,0,0,0,0,1.109h4.3a.555.555,0,0,0,0-1.109Z" transform="translate(-970.351 -1191.932)" fill="#58595b"/>
  </g>
</svg>
