<svg xmlns="http://www.w3.org/2000/svg" width="318.261" height="52.624"><path d="M142.637 20.021l-6.774 8.127h-.959l-6.742-8.127v13.746h-5.551V11.29h4.793l7.997 9.389 7.997-9.389h4.793v22.477h-5.554V20.021zm19.059-9.058c6.643 0 11.599 4.955 11.599 11.602 0 6.574-4.956 11.532-11.599 11.532-6.576 0-11.533-4.958-11.533-11.532 0-6.647 4.957-11.602 11.533-11.602zm0 17.913c3.635 0 6.114-2.744 6.114-6.312 0-3.637-2.479-6.348-6.114-6.348-3.537 0-6.113 2.711-6.113 6.348 0 3.568 2.576 6.312 6.113 6.312zm33.569-8.855l-6.775 8.127h-.957l-6.742-8.127v13.746h-5.553V11.29h4.793l7.996 9.389 7.998-9.389h4.792v22.477h-5.552V20.021zm8.847 13.746V11.29h18.043v4.827h-12.723v3.868h10.309v4.656h-10.309v4.299h12.723v4.826h-18.043zm25.801-13.648v13.647h-5.552V11.29h4.822l11.339 13.653V11.29h5.551v22.477h-4.826l-11.334-13.648zm29.936-3.966v17.613h-5.554V16.153h-6.906V11.29h19.167v4.863h-6.707zm13.277 7.6c0 3.237 1.652 5.222 4.859 5.222 3.304 0 4.955-2.048 4.955-5.222V11.29h5.557v12.827c0 5.387-3.705 10.013-10.512 10.013-6.711 0-10.414-4.196-10.414-10.013V11.29h5.555v12.463zm38.365-3.732l-6.775 8.127h-.958l-6.743-8.127v13.746h-5.553V11.29h4.792l7.996 9.389 8.001-9.389h4.789v22.477h-5.549V20.021zM122.522 40.566h4.041c3.252.016 5.679 1.938 5.679 5.518 0 3.54-2.427 5.479-5.679 5.479h-4.041V40.566zm.711.647v9.705h3.313c2.883 0 4.968-1.698 4.968-4.834 0-3.174-2.085-4.854-4.968-4.871h-3.313zm12.621 10.35V40.566h8.251v.663h-7.554v4.254h6.369v.644h-6.369V50.9h7.554v.663h-8.251zm10.589-10.997h.758l4.224 10.334 4.479-10.334h.762l-4.838 10.997h-.823l-4.562-10.997zm13.204 10.997V40.566h8.251v.663h-7.554v4.254h6.369v.644h-6.369V50.9h7.554v.663h-8.251zm11.788 0V40.566h.71v10.352h6.534v.646h-7.244zm14.257-11.157c3.248 0 5.675 2.425 5.675 5.678 0 3.217-2.427 5.639-5.675 5.639-3.219 0-5.644-2.422-5.644-5.639.001-3.253 2.426-5.678 5.644-5.678zm0 10.641c2.881 0 4.965-2.119 4.965-4.963 0-2.884-2.084-4.983-4.965-4.983-2.849 0-4.948 2.1-4.948 4.983 0 2.844 2.1 4.963 4.948 4.963zm9.245-10.481h4.541c2.037 0 3.785 1.196 3.785 3.802 0 2.339-1.748 3.733-3.785 3.733h-3.832v3.462h-.709V40.566zm.709.647v6.239h3.75c1.717 0 3.141-1.128 3.141-3.084 0-2.153-1.424-3.155-3.141-3.155h-3.75zm21.728.503l-4.93 6h-.211l-4.948-6v9.848h-.711V40.566h.679l5.076 6.195 5.096-6.195h.662v10.997h-.713v-9.847zm5.053 9.847V40.566h8.25v.663h-7.554v4.254h6.369v.644h-6.369V50.9h7.554v.663h-8.25zm12.493-9.847v9.848h-.709V40.566h.662l8.347 9.897v-9.897h.711v10.997h-.646l-8.365-9.847zm17.039-.487v10.334h-.709V41.229h-4.482v-.663h9.382v.663h-4.191zm6.547 8.85c.647.385 2.024.968 3.491.968 2.055 0 3.594-.954 3.594-2.493 0-1.083-.81-1.681-2.51-2.054l-2.246-.516c-1.666-.387-2.622-1.262-2.622-2.623 0-1.551 1.278-2.938 4.142-2.938 1.456 0 2.91.434 3.707.888l-.227.661c-.732-.449-2.234-.871-3.498-.871-2.361 0-3.395 1.052-3.395 2.214 0 1.019.71 1.65 2.068 1.975l2.331.552c1.862.45 2.976 1.146 2.976 2.682 0 1.956-1.811 3.2-4.336 3.2-1.535 0-2.989-.545-3.684-.966l.209-.679zM76.964 1.616l-8.542 10.428h3.325c7.869 0 13.236 5.098 13.236 14.409 0 9.166-5.367 14.26-13.236 14.26H60.83L48.805 51.501h23.513c14.385 0 25.113-8.862 25.113-25.048 0-14.518-8.483-23.057-20.467-24.837z" fill="#5A5A5D"/><path fill="#F5921D" d="M48.805 35.744v15.757L60.83 40.713V21.07zm-18.73 3.192h-2.082L13.4 20.762v30.739H1.384V1.254h10.377l17.316 20.988L46.391 1.254h14.782L30.075 38.936z"/></svg>